# xmcd CD database file
#
# Track frame offsets:
#	150
#	14007
#	28558
#	44042
#	57137
#	67852
#	81864
#	94956
#	107945
#	120648
#	134876
#	148151
#	174110
#	189447
#	202179
#	214777
#	229527
#	243562
#	254550
#	264339
#	274585
#	289443
#	304821
#	318700
#	331613
#	343697
#
# Disc length: 4761 seconds
#
# Revision: 1
# Processed by: cddbd v1.5.2PL0 Copyright (c) Steve Scherf et al.
# Submitted via: CDex 1.51
#
DISCID=9612971a
DTITLE=Lionel Hampton - Jivin' the vibes - CD 1
DYEAR=2005
DGENRE=Jazz
TTITLE0=New Kinda Blues
TTITLE1=Meemories Of You
TTITLE2=Moonglow
TTITLE3=You Turned The Tables On Me
TTITLE4=Jivin' The Vibes
TTITLE5=Buzzin' Around With The Bee
TTITLE6=Whoa babe
TTITLE7=Rythm, Rythm (I Got Rythm)
TTITLE8=China Stomp (Chinatown)
TTITLE9=Dump Stomp (Crazy Rythm)
TTITLE10=Piano Stomp (Shine)
TTITLE11=Dizzy Spells
TTITLE12=Ring Dem Bells
TTITLE13=I'm In The Mood For Swing
TTITLE14=Rock Hill Special
TTITLE15=It Don't Mean A Thing
TTITLE16=Shufflin' At The Hollywood
TTITLE17=Wizzin' The Whizz
TTITLE18=When Lights Are Low
TTITLE19=Hot Mallets
TTITLE20=The Munson Street Breakdown
TTITLE21=Till Tom Special
TTITLE22=Central Avenus Breakdown
TTITLE23=Jack The Bellboy
TTITLE24=Jivin' With Jarvis
TTITLE25=Blue Because Of You
EXTD=YEAR: 2005
EXTT0=
EXTT1=
EXTT2=
EXTT3=
EXTT4=
EXTT5=
EXTT6=
EXTT7=
EXTT8=
EXTT9=
EXTT10=
EXTT11=
EXTT12=
EXTT13=
EXTT14=
EXTT15=
EXTT16=
EXTT17=
EXTT18=
EXTT19=
EXTT20=
EXTT21=
EXTT22=
EXTT23=
EXTT24=
EXTT25=
PLAYORDER=
